<svg xmlns="http://www.w3.org/2000/svg" viewBox="0 0 1133.83 249.01"><defs><style>.cls-1{fill:#f9a106;}.cls-2{fill:#fff;}</style></defs><title>Logo_GIGANT_site</title><g id="Layer_2" data-name="Layer 2"><path class="cls-1" d="M362.2,826.56a53.77,53.77,0,0,0,1.18-5.86h0l5.86-8.4-.54-7.22-5.25,0h0a56.54,56.54,0,0,0-1.13-5.88v0l2.21-10-3.25-6.47-4.84,2h0a57.13,57.13,0,0,0-3.29-5v0l-1.77-10.08L345.9,765l-3.7,3.72h0a57.49,57.49,0,0,0-4.95-3.37v0a55,55,0,0,0-14.33-6.09v0A53.86,53.86,0,0,0,317,758l0,0a55.6,55.6,0,0,0-15.56-.16v0a55.38,55.38,0,0,0-7.23,1.44h0a55.27,55.27,0,0,0-14.29,6.15v0a55.45,55.45,0,0,0-4.91,3.38h0l-10.05,2-4.64,5.56,3.8,3.63h0a53.68,53.68,0,0,0-3.27,5h0l-8.55,5.64-2.17,6.91,4.89,1.91h0c-.3,1.2-.55,2.42-.77,3.64-.12.74-.24,1.48-.34,2.23h0l-5.76,8.49.63,7.22,5.26-.1c0,.14,0,.28.06.41s.08.52.13.77.08.48.13.72c.14.78.3,1.56.48,2.32.1.45.21.9.33,1.34,0,.1.05.2.07.3l-2.08,10,3.33,6.43,4.82-2.1c.19.31.38.62.58.93l.29.46c.41.64.83,1.27,1.27,1.89l.32.45c.22.31.44.61.67.91l.22.3,1.9,10.09,5.53,4.68,3.66-3.78a55,55,0,0,0,5,3.3l5.6,8.59,6.9,2.21,1.94-4.88a53.71,53.71,0,0,0,5.86,1.15l8.46,5.81,7.21-.58-.06-5.26c.2,0,.39-.07.59-.09l.77-.13.37-.07.63-.11.1,0,.74-.14.46-.1q1.11-.22,2.22-.51l10,2.14,6.44-3.29-2.06-4.83.66-.4.62-.38.46-.3.39-.25.12-.08.5-.33.55-.38.54-.38.54-.39.59-.43,10.09-1.84,4.71-5.5-3.76-3.68h0l.45-.6c.59-.8,1.15-1.62,1.7-2.46.41-.62.8-1.26,1.19-1.9h0l8.62-5.54,2.26-6.88-4.86-2Zm-53.54,30.55a44.45,44.45,0,1,1,44.44-44.45A44.44,44.44,0,0,1,308.66,857.11Z" transform="translate(-220.21 -624.24)"/></g><g id="Layer_3" data-name="Layer 3"><path class="cls-1" d="M323.27,778.23v8.4a29.82,29.82,0,0,1,15.25,26c0,.12,0,.25,0,.37l7.26,4.19a36.14,36.14,0,0,0,.28-4.56A37.38,37.38,0,0,0,323.27,778.23Zm-52,34.43a37.74,37.74,0,0,0,.27,4.53l7.29-4.2c0-.11,0-.22,0-.33a29.8,29.8,0,0,1,15.23-26v-8.4A37.4,37.4,0,0,0,271.27,812.66Zm52.62,25.67a29.84,29.84,0,0,1-30.48,0l-7.28,4.19a37.4,37.4,0,0,0,45,0Z" transform="translate(-220.21 -624.24)"/><path class="cls-1" d="M313.2,775.54v23.77a13.91,13.91,0,0,0-9.07,0V775.54a38.22,38.22,0,0,1,9.07,0Z" transform="translate(-220.21 -624.24)"/><path class="cls-1" d="M343.08,827.32a38,38,0,0,1-4.54,7.84l-20.6-11.89a14,14,0,0,0,4.56-7.85Z" transform="translate(-220.21 -624.24)"/><path class="cls-1" d="M299.36,823.26l-20.59,11.87a37.33,37.33,0,0,1-4.54-7.85l20.59-11.87A14.13,14.13,0,0,0,299.36,823.26Z" transform="translate(-220.21 -624.24)"/></g><g id="Layer_4" data-name="Layer 4"><polygon class="cls-1" points="0 229.85 5.98 229.85 32.11 124.37 59.03 148.14 62.86 143.8 28.79 113.7 0 229.85"/><polygon class="cls-1" points="148.13 113.7 114.05 143.8 117.88 148.14 144.8 124.37 170.94 229.85 176.91 229.85 148.13 113.7"/></g><g id="Layer_5" data-name="Layer 5"><path class="cls-2" d="M568.92,744.54v58.34c-7.55,3.8-17.5,5.93-27.87,5.93-39,0-62.37-28.11-62.37-61.17,0-34,24.81-61.17,62.13-61.17,19.36,0,38.25,7.32,52.19,17.93V673c-12.74-7.55-30.7-13.7-52.42-13.7-53.85,0-91.86,38.25-91.86,88.57,0,50.75,38.24,87.61,90.89,87.61,21.76,0,43.48-6.39,58.81-15.84v-75.1Z" transform="translate(-220.21 -624.24)"/><path class="cls-2" d="M631,661.89v171h30v-171Z" transform="translate(-220.21 -624.24)"/><path class="cls-2" d="M807.39,744.54v58.34c-7.55,3.8-17.46,5.93-27.88,5.93-38.94,0-62.32-28.11-62.32-61.17,0-34,24.77-61.17,62.09-61.17,19.36,0,38.25,7.32,52.18,17.93V673c-12.73-7.55-30.69-13.7-52.41-13.7-53.85,0-91.87,38.25-91.87,88.57,0,50.75,38.25,87.61,90.94,87.61,21.72,0,43.43-6.39,58.8-15.84v-75.1Z" transform="translate(-220.21 -624.24)"/><path class="cls-2" d="M952.36,661.89H923.1L853,832.88h30.93l16.53-41.81h73.67l16.3,41.81h31.9ZM910.09,766.53,920,740.79c5.92-15.37,11.34-30,17-45.84h.47c5.42,15.37,11.11,30.47,17,45.84l9.91,25.74Z" transform="translate(-220.21 -624.24)"/><path class="cls-2" d="M1161.1,661.89V733.7c0,18.2,0,35.66.46,51.72l-.46.23c-9.91-13.7-19.82-27.17-30.47-41.34l-61.86-82.42h-28.34v171h29V761.07c0-18.15,0-35.65-.47-51.72l.47-.23c10,13.71,19.86,27.18,30.46,41.35l61.9,82.41h28.34v-171Z" transform="translate(-220.21 -624.24)"/><path class="cls-2" d="M1211.62,661.89V688.6h56V832.88h30V688.6H1354V661.89Z" transform="translate(-220.21 -624.24)"/></g><g id="Layer_7" data-name="Layer 7"><path class="cls-1" d="M380.81,661.48h-6.27l-27.05,65.35H327.66v-2.14a14.16,14.16,0,0,0-5.27-3,20.94,20.94,0,0,0,4.94-1.94l.33-.2c7.86-5.17,14-26.55,11.21-35.31-1.31-4-5.71-8.87-11-13l32-6.85v-26.2h4v-14l-12.45,7v7h3.26v22l-32.7,7c-4.84-2.92-9.76-4.91-13.38-4.91s-8.56,2-13.4,4.91l-32.7-7v-22h3.27v-7l-12.45-7v14h4v26.2l32,6.85c-5.28,4.13-9.68,9-11,13-2.84,8.76,3.35,30.14,11.21,35.31l.33.2a20.85,20.85,0,0,0,4.93,1.94,14.11,14.11,0,0,0-5.26,3v2.14H268.48l-27-65.35h-6.28l29.45,71.14h25.06v25.71a11.34,11.34,0,0,0,2.91,2c2.85,2.69,9.47,4.14,16.09,4.14s13.23-1.45,16.08-4.14a11.34,11.34,0,0,0,2.91-2V732.62h23.71Zm-90,45.59c-1.77-5.67-1.91-10.31-1.29-12.22s3.39-5.38,8.18-8.86,9-5,11-5,6.16,1.56,11,5,7.56,7,8.18,8.86.48,6.55-1.29,12.22a29.59,29.59,0,0,1-3.4,7.44,45.21,45.21,0,0,0-28.89,0A29.24,29.24,0,0,1,290.82,707.07Zm-5-3.32v0m33.73,52.1c-.56.17-1.16.35-1.83.49a44.92,44.92,0,0,1-18.09,0c-.67-.14-1.27-.31-1.84-.48h0V739.24a16.91,16.91,0,0,1,1.84-.63,38.76,38.76,0,0,1,18.09,0,17.34,17.34,0,0,1,1.83.63Z" transform="translate(-220.21 -624.24)"/></g></svg>